<svg width="324" height="68" viewBox="0 0 324 68" fill="none" xmlns="http://www.w3.org/2000/svg">
<g filter="url(#filter0_d)">
<path d="M415.841 50.4668L408.977 46.7087C395.706 39.4423 379.26 36.7383 363.412 39.217L346.942 41.7928C336.234 43.4675 325.185 40.6991 317.667 34.458C309.754 27.8883 297.964 25.1914 286.82 27.402L283.987 27.9638C270.534 30.6324 256.321 27.1145 247.215 18.8627L238.169 10.6643C231.874 4.31332 220.048 3.54332 212.516 8.99408L177.499 34.3372C162.755 45.0081 139.747 43.975 126.635 32.0533C114.629 21.1378 94.0637 19.2126 79.1503 27.6083L65.4021 35.348C49.573 44.2591 27.555 41.2228 16.5016 28.6045C8.74215 19.7465 -4.86586 15.2799 -18.3054 17.1796L-31.4685 19.0403" stroke="#8280FF" stroke-width="3" stroke-linecap="round"/>
</g>
<defs>
<filter id="filter0_d" x="-43.9688" y="0.856384" width="472.31" height="70.1107" filterUnits="userSpaceOnUse" color-interpolation-filters="sRGB">
<feFlood flood-opacity="0" result="BackgroundImageFix"/>
<feColorMatrix in="SourceAlpha" type="matrix" values="0 0 0 0 0 0 0 0 0 0 0 0 0 0 0 0 0 0 127 0" result="hardAlpha"/>
<feOffset dy="8"/>
<feGaussianBlur stdDeviation="5.5"/>
<feColorMatrix type="matrix" values="0 0 0 0 0.509804 0 0 0 0 0.501961 0 0 0 0 1 0 0 0 0.35 0"/>
<feBlend mode="normal" in2="BackgroundImageFix" result="effect1_dropShadow"/>
<feBlend mode="normal" in="SourceGraphic" in2="effect1_dropShadow" result="shape"/>
</filter>
</defs>
</svg>
