<svg width="324" height="68" viewBox="0 0 324 68" fill="none" xmlns="http://www.w3.org/2000/svg">
<g filter="url(#filter0_d)">
<path d="M324 50L318.553 46.2511C308.02 39.0025 294.968 36.3052 282.39 38.7778L269.319 41.3473C260.821 43.0178 252.052 40.2562 246.086 34.0304C239.806 27.4768 230.449 24.7865 221.604 26.9916L219.356 27.5521C208.68 30.2142 197.399 26.7049 190.173 18.4733L182.993 10.295C177.997 3.95955 168.612 3.19143 162.634 8.62885L134.844 33.9099C123.142 44.5546 104.882 43.524 94.4761 31.6315C84.9481 20.7428 68.6265 18.8224 56.7908 27.1975L45.8798 34.9182C33.3172 43.8075 15.843 40.7787 7.07069 28.1913C0.912521 19.3549 -9.88725 14.8992 -20.5533 16.7943L-31 18.6505" stroke="#FB896B" stroke-width="3" stroke-linecap="round"/>
</g>
<defs>
<filter id="filter0_d" x="-43.5002" y="0.5" width="380" height="70.0001" filterUnits="userSpaceOnUse" color-interpolation-filters="sRGB">
<feFlood flood-opacity="0" result="BackgroundImageFix"/>
<feColorMatrix in="SourceAlpha" type="matrix" values="0 0 0 0 0 0 0 0 0 0 0 0 0 0 0 0 0 0 127 0" result="hardAlpha"/>
<feOffset dy="8"/>
<feGaussianBlur stdDeviation="5.5"/>
<feColorMatrix type="matrix" values="0 0 0 0 0.984314 0 0 0 0 0.537255 0 0 0 0 0.419608 0 0 0 0.35 0"/>
<feBlend mode="normal" in2="BackgroundImageFix" result="effect1_dropShadow"/>
<feBlend mode="normal" in="SourceGraphic" in2="effect1_dropShadow" result="shape"/>
</filter>
</defs>
</svg>
