<svg width="24" height="24" viewBox="0 0 24 24" fill="none" xmlns="http://www.w3.org/2000/svg">
<path d="M23.2969 11.0625H6.70312C6.31479 11.0625 6 11.4822 6 12C6 12.5178 6.31479 12.9375 6.70312 12.9375H23.2969C23.6852 12.9375 24 12.5178 24 12C24 11.4822 23.6852 11.0625 23.2969 11.0625Z" fill="white"/>
<path d="M23.0625 3.5625H0.9375C0.419719 3.5625 0 3.98222 0 4.5C0 5.01778 0.419719 5.4375 0.9375 5.4375H23.0625C23.5803 5.4375 24 5.01778 24 4.5C24 3.98222 23.5803 3.5625 23.0625 3.5625Z" fill="white"/>
<path d="M23.0625 18.5625H0.9375C0.419719 18.5625 0 18.9822 0 19.5C0 20.0178 0.419719 20.4375 0.9375 20.4375H23.0625C23.5803 20.4375 24 20.0178 24 19.5C24 18.9822 23.5803 18.5625 23.0625 18.5625Z" fill="white"/>
</svg>
