<svg width="70" height="70" viewBox="0 0 70 70" fill="none" xmlns="http://www.w3.org/2000/svg">
<circle opacity="0.3" cx="35" cy="35" r="34.5" fill="url(#paint0_linear)" stroke="url(#paint1_linear)"/>
<g clip-path="url(#clip0)">
<path d="M47.1382 32.0893H47.055V30.0517C47.055 23.5063 41.749 18.2002 35.2035 18.2002C28.658 18.2002 23.352 23.5063 23.352 30.0517V32.0893H22.853C21.0233 32.0893 19.6095 33.711 19.6095 35.5824V40.7804C19.5634 42.5941 20.9964 44.1018 22.8101 44.1479C22.8245 44.1483 22.8387 44.1485 22.853 44.1487H25.9302C26.3661 44.1282 26.7029 43.7582 26.6823 43.3223C26.6816 43.3066 26.6804 43.291 26.6788 43.2754V33.0872C26.6788 32.5883 26.3877 32.0892 25.9302 32.0892H25.0154V30.0516C25.0154 24.4249 29.5768 19.8635 35.2035 19.8635C40.8302 19.8635 45.3916 24.4249 45.3916 30.0516V32.0892H44.4767C44.0193 32.0892 43.7282 32.5882 43.7282 33.0872V43.2754C43.6818 43.7092 43.9959 44.0986 44.4298 44.145C44.4454 44.1467 44.4611 44.1479 44.4767 44.1486H45.4332L45.35 44.2733C44.1022 45.9317 42.1441 46.903 40.0688 46.8931C39.6145 44.6653 37.4401 43.2276 35.2123 43.682C33.3072 44.0705 31.9337 45.739 31.9183 47.6832C31.9411 49.9636 33.7963 51.8002 36.0767 51.8C37.2056 51.7817 38.2817 51.3185 39.0708 50.5109C39.6032 49.9657 39.952 49.2679 40.0688 48.5148C42.6677 48.5247 45.1187 47.3069 46.6806 45.2297L47.4708 44.0653C49.2589 43.9406 50.3816 42.8178 50.3816 41.196V35.998C50.3817 34.2101 49.051 32.0893 47.1382 32.0893ZM25.0154 42.4853H22.853C21.9576 42.4635 21.2494 41.72 21.2712 40.8246C21.2716 40.8098 21.2721 40.7951 21.2728 40.7803V35.5823C21.2728 34.6259 21.9382 33.7526 22.853 33.7526H25.0154V42.4853ZM37.8649 49.3467C37.404 49.8464 36.7565 50.1325 36.0768 50.1368C34.7239 50.1153 33.6259 49.0357 33.5818 47.6833C33.5812 46.3283 34.6792 45.2294 36.0342 45.2288C37.3892 45.2283 38.4881 46.3263 38.4887 47.6813C38.4887 47.682 38.4887 47.6827 38.4887 47.6833C38.5233 48.3007 38.2969 48.9043 37.8649 49.3467ZM48.7183 41.1962C48.7183 42.3189 47.6371 42.4853 47.1382 42.4853H45.3916V33.7527H47.1382C48.053 33.7527 48.7183 35.0418 48.7183 35.9982V41.1962Z" fill="#9472F9"/>
</g>
<defs>
<linearGradient id="paint0_linear" x1="-37" y1="-32" x2="92" y2="95" gradientUnits="userSpaceOnUse">
<stop stop-color="#EDE9FA"/>
<stop offset="1" stop-color="#EDE9FA" stop-opacity="0"/>
</linearGradient>
<linearGradient id="paint1_linear" x1="35" y1="0" x2="35" y2="70" gradientUnits="userSpaceOnUse">
<stop stop-color="#FE6C4D"/>
<stop offset="1" stop-color="#9472F9"/>
</linearGradient>
<clipPath id="clip0">
<rect width="33.6" height="33.6" fill="white" transform="translate(18.1953 18.2002)"/>
</clipPath>
</defs>
</svg>
