<svg width="70" height="70" viewBox="0 0 70 70" fill="none" xmlns="http://www.w3.org/2000/svg">
<g opacity="0.29" filter="url(#filter0_b)">
<circle cx="35" cy="35" r="35" fill="url(#paint0_linear)"/>
<circle cx="35" cy="35" r="34.5" stroke="url(#paint1_linear)"/>
</g>
<g clip-path="url(#clip0)">
<path d="M50.381 38.1881L49.6745 37.7564L50.381 37.3218C52.2627 36.1717 52.2669 34.2129 50.381 33.0604L49.6745 32.6286L50.381 32.1941C52.2677 31.041 52.2611 28.3049 50.3834 27.1573L36.5314 18.6375C35.5817 18.0572 34.402 18.0572 33.4524 18.6375C33.4515 18.638 33.4508 18.6386 33.4498 18.6391L19.6096 27.1559C17.7235 28.3086 17.729 31.0448 19.607 32.1925L20.316 32.6287L19.6096 33.0604C17.7302 34.2089 17.7222 36.1682 19.607 37.3201L20.316 37.7564L19.6096 38.188C17.7229 39.3411 17.7257 41.6916 19.607 42.8414L33.4524 51.3614C34.3918 51.9354 35.5716 51.9479 36.5337 51.3599L50.381 42.843C52.2668 41.6906 52.2666 39.3406 50.381 38.1881ZM20.6385 28.8337L34.4813 20.3154L34.4809 20.3157C34.7971 20.1236 35.1893 20.124 35.5026 20.3155L49.3547 28.8354C49.9813 29.2182 49.985 30.1296 49.3523 30.5162C48.3356 31.1416 35.9523 38.758 35.5051 39.0331C35.1885 39.2266 34.7953 39.2265 34.4815 39.0347C33.8631 38.6542 21.1892 30.8552 20.6361 30.5147C20.0094 30.1318 20.0055 29.2206 20.6385 28.8337ZM20.165 35.191C20.166 35.158 20.2527 34.9739 20.636 34.7397L22.1966 33.7859L33.4525 40.7124C34.3939 41.2877 35.5737 41.2976 36.5337 40.7109L47.7934 33.7855L49.3547 34.7397C49.738 34.9739 49.8247 35.1579 49.8257 35.1909C49.8247 35.2241 49.7379 35.4082 49.3523 35.6438C48.3354 36.2692 35.9523 43.8856 35.5051 44.1607C35.1884 44.3542 34.7953 44.3541 34.4814 44.1623C34.0339 43.8869 21.6629 36.2743 20.636 35.6423C20.2527 35.408 20.166 35.224 20.165 35.191ZM49.3523 41.1651L35.505 49.682C35.1885 49.8755 34.7953 49.8754 34.4813 49.6836L20.6359 41.1636C20.0106 40.7816 20.0098 40.25 20.6359 39.8675L22.1966 38.9137L33.4525 45.8401C34.3952 46.4162 35.575 46.4246 36.5337 45.8386L47.7934 38.9133L49.3547 39.8675C49.6541 40.0504 49.8257 40.2865 49.8257 40.5155C49.8257 40.7445 49.654 40.9807 49.3523 41.1651Z" fill="#FDB400"/>
</g>
<defs>
<filter id="filter0_b" x="-250" y="-250" width="570" height="570" filterUnits="userSpaceOnUse" color-interpolation-filters="sRGB">
<feFlood flood-opacity="0" result="BackgroundImageFix"/>
<feGaussianBlur in="BackgroundImage" stdDeviation="125"/>
<feComposite in2="SourceAlpha" operator="in" result="effect1_backgroundBlur"/>
<feBlend mode="normal" in="SourceGraphic" in2="effect1_backgroundBlur" result="shape"/>
</filter>
<linearGradient id="paint0_linear" x1="-23" y1="-20" x2="102" y2="93" gradientUnits="userSpaceOnUse">
<stop stop-color="#FBF6EB"/>
<stop offset="1" stop-color="#FBF6EB" stop-opacity="0"/>
</linearGradient>
<linearGradient id="paint1_linear" x1="35" y1="0" x2="35" y2="70" gradientUnits="userSpaceOnUse">
<stop stop-color="#FE6C4D"/>
<stop offset="1" stop-color="#FDB400"/>
</linearGradient>
<clipPath id="clip0">
<rect width="33.6" height="33.6" fill="white" transform="translate(18.1953 18.2002)"/>
</clipPath>
</defs>
</svg>
