<svg width="60" height="60" viewBox="0 0 60 60" fill="none" xmlns="http://www.w3.org/2000/svg">
<rect width="60" height="60" rx="22" fill="#FFF8E6"/>
<path d="M17.7499 33.9833L18.4793 33.8087L17.7499 33.9833ZM17.7499 25.5134L18.4793 25.6879L17.7499 25.5134ZM42.2501 25.5134L41.5207 25.6879L42.2501 25.5134ZM42.2501 33.9833L41.5207 33.8087L42.2501 33.9833ZM34.3202 41.7566L34.1522 41.0257L34.3202 41.7566ZM25.6798 41.7566L25.5117 42.4875L25.6798 41.7566ZM25.6798 17.74L25.8478 18.471L25.6798 17.74ZM34.3202 17.74L34.1522 18.471L34.3202 17.74ZM18.4793 33.8087C17.8402 31.138 17.8402 28.3587 18.4793 25.6879L17.0205 25.3388C16.3265 28.2391 16.3265 31.2576 17.0205 34.1578L18.4793 33.8087ZM41.5207 25.6879C42.1598 28.3587 42.1598 31.138 41.5207 33.8087L42.9795 34.1578C43.6735 31.2576 43.6735 28.2391 42.9795 25.3388L41.5207 25.6879ZM34.1522 41.0257C31.4212 41.6536 28.5788 41.6536 25.8479 41.0257L25.5117 42.4875C28.4639 43.1664 31.5361 43.1664 34.4883 42.4875L34.1522 41.0257ZM25.8478 18.471C28.5788 17.843 31.4212 17.843 34.1522 18.471L34.4883 17.0091C31.5361 16.3303 28.4639 16.3303 25.5117 17.0091L25.8478 18.471ZM25.8479 41.0257C22.1844 40.1833 19.3345 37.3824 18.4793 33.8087L17.0205 34.1578C18.0112 38.2982 21.3058 41.5205 25.5117 42.4875L25.8479 41.0257ZM34.4883 42.4875C38.6942 41.5205 41.9888 38.2981 42.9795 34.1578L41.5207 33.8087C40.6655 37.3824 37.8156 40.1833 34.1522 41.0257L34.4883 42.4875ZM34.1522 18.471C37.8156 19.3133 40.6655 22.1142 41.5207 25.6879L42.9795 25.3388C41.9888 21.1985 38.6942 17.9762 34.4883 17.0091L34.1522 18.471ZM25.5117 17.0091C21.3058 17.9762 18.0112 21.1985 17.0205 25.3388L18.4793 25.6879C19.3345 22.1142 22.1844 19.3133 25.8478 18.471L25.5117 17.0091ZM33.6974 42.75C33.6974 40.6854 33.6991 39.2138 33.8523 38.0965C34.0024 37.0022 34.2851 36.3599 34.7674 35.8872L33.7174 34.816C32.9047 35.6126 32.5399 36.6265 32.3663 37.8926C32.1958 39.1356 32.1974 40.7286 32.1974 42.75H33.6974ZM41.7898 33.3322C39.7264 33.3322 38.1049 33.3307 36.8405 33.4973C35.5561 33.6666 34.5279 34.0214 33.7174 34.816L34.7674 35.8872C35.2517 35.4124 35.9131 35.1325 37.0365 34.9845C38.1801 34.8337 39.6848 34.8322 41.7898 34.8322V33.3322Z" fill="#FEC53D"/>
<path d="M25.75 25.75H30M25.75 30H32.8333" stroke="#FEC53D" stroke-width="1.5" stroke-linecap="round"/>
</svg>
