<svg width="95" height="57" viewBox="0 0 95 57" fill="none" xmlns="http://www.w3.org/2000/svg">
<circle cx="28.001" cy="28.0005" r="28" fill="#FE6C4D"/>
<path d="M76.481 27.7605L83.801 38.0005H77.841L73.521 31.9205L69.161 38.0005H63.201L70.521 27.8005L63.521 18.0005H69.481L73.521 23.6405L77.561 18.0005H83.481L76.481 27.7605ZM92.7766 35.1205C92.7766 36.0538 92.4433 36.8538 91.7766 37.5205C91.1099 38.1872 90.3099 38.5205 89.3766 38.5205C88.4433 38.5205 87.6433 38.1872 86.9766 37.5205C86.3099 36.8538 85.9766 36.0538 85.9766 35.1205C85.9766 34.1872 86.3099 33.3872 86.9766 32.7205C87.6433 32.0538 88.4433 31.7205 89.3766 31.7205C90.3099 31.7205 91.1099 32.0538 91.7766 32.7205C92.4433 33.3872 92.7766 34.1872 92.7766 35.1205Z" fill="white"/>
<path d="M38.161 39.3605C35.3343 42.1605 31.8943 43.5605 27.841 43.5605C23.7876 43.5605 20.3476 42.1605 17.521 39.3605C14.721 36.5072 13.321 33.0538 13.321 29.0005C13.321 24.9205 14.721 21.4805 17.521 18.6805C20.3476 15.8538 23.7876 14.4405 27.841 14.4405C31.8943 14.4405 35.3343 15.8538 38.161 18.6805C40.9876 21.4805 42.401 24.9205 42.401 29.0005C42.401 33.0805 40.9876 36.5338 38.161 39.3605ZM21.401 35.6005C23.1076 37.3072 25.2543 38.1605 27.841 38.1605C30.4276 38.1605 32.5743 37.3072 34.281 35.6005C36.0143 33.8672 36.881 31.6672 36.881 29.0005C36.881 26.3338 36.0143 24.1338 34.281 22.4005C32.5476 20.6672 30.401 19.8005 27.841 19.8005C25.281 19.8005 23.1343 20.6672 21.401 22.4005C19.6676 24.1338 18.801 26.3338 18.801 29.0005C18.801 31.6672 19.6676 33.8672 21.401 35.6005Z" fill="white"/>
</svg>
