<svg width="83" height="80" viewBox="0 0 83 80" fill="none" xmlns="http://www.w3.org/2000/svg">
<circle cx="43" cy="40" r="40" fill="#4DDFFD"/>
<circle cx="40" cy="40" r="39.5" fill="#06053C" stroke="url(#paint0_linear)"/>
<path d="M40 44C42.2091 44 44 42.2091 44 40C44 37.7909 42.2091 36 40 36C37.7909 36 36 37.7909 36 40C36 42.2091 37.7909 44 40 44Z" stroke="#4DDFFD" stroke-width="2" stroke-linecap="round" stroke-linejoin="round"/>
<path d="M49.8663 44C49.6889 44.4022 49.6359 44.8483 49.7143 45.2808C49.7928 45.7134 49.999 46.1125 50.3063 46.4267L50.3863 46.5067C50.6343 46.7544 50.831 47.0485 50.9652 47.3722C51.0994 47.6959 51.1684 48.0429 51.1684 48.3934C51.1684 48.7438 51.0994 49.0908 50.9652 49.4145C50.831 49.7383 50.6343 50.0324 50.3863 50.28C50.1387 50.528 49.8446 50.7247 49.5208 50.8589C49.1971 50.9931 48.8501 51.0621 48.4997 51.0621C48.1492 51.0621 47.8022 50.9931 47.4785 50.8589C47.1548 50.7247 46.8607 50.528 46.613 50.28L46.533 50.2C46.2188 49.8927 45.8197 49.6865 45.3871 49.608C44.9546 49.5296 44.5085 49.5826 44.1063 49.76C43.712 49.9291 43.3757 50.2097 43.1387 50.5674C42.9018 50.9251 42.7747 51.3443 42.773 51.7734V52C42.773 52.7073 42.4921 53.3856 41.992 53.8857C41.4919 54.3858 40.8136 54.6667 40.1063 54.6667C39.3991 54.6667 38.7208 54.3858 38.2207 53.8857C37.7206 53.3856 37.4397 52.7073 37.4397 52V51.88C37.4294 51.4387 37.2865 51.0107 37.0297 50.6516C36.7729 50.2926 36.414 50.0191 35.9997 49.8667C35.5975 49.6892 35.1514 49.6363 34.7189 49.7147C34.2864 49.7931 33.8872 49.9993 33.573 50.3067L33.493 50.3867C33.2453 50.6346 32.9512 50.8313 32.6275 50.9655C32.3038 51.0997 31.9568 51.1688 31.6063 51.1688C31.2559 51.1688 30.9089 51.0997 30.5852 50.9655C30.2614 50.8313 29.9673 50.6346 29.7197 50.3867C29.4717 50.139 29.275 49.8449 29.1408 49.5212C29.0067 49.1975 28.9376 48.8505 28.9376 48.5C28.9376 48.1496 29.0067 47.8026 29.1408 47.4789C29.275 47.1551 29.4717 46.861 29.7197 46.6134L29.7997 46.5334C30.1071 46.2191 30.3133 45.82 30.3917 45.3875C30.4701 44.955 30.4172 44.5089 30.2397 44.1067C30.0707 43.7123 29.79 43.376 29.4323 43.1391C29.0746 42.9022 28.6554 42.7751 28.2263 42.7734H27.9997C27.2924 42.7734 26.6142 42.4924 26.1141 41.9923C25.614 41.4922 25.333 40.814 25.333 40.1067C25.333 39.3995 25.614 38.7212 26.1141 38.2211C26.6142 37.721 27.2924 37.44 27.9997 37.44H28.1197C28.561 37.4297 28.989 37.2869 29.3481 37.0301C29.7071 36.7732 29.9806 36.4144 30.133 36C30.3105 35.5979 30.3634 35.1518 30.285 34.7193C30.2066 34.2867 30.0004 33.8876 29.693 33.5734L29.613 33.4934C29.3651 33.2457 29.1684 32.9516 29.0342 32.6279C28.9 32.3042 28.8309 31.9571 28.8309 31.6067C28.8309 31.2563 28.9 30.9093 29.0342 30.5855C29.1684 30.2618 29.3651 29.9677 29.613 29.72C29.8607 29.4721 30.1548 29.2754 30.4785 29.1412C30.8022 29.007 31.1492 28.9379 31.4997 28.9379C31.8501 28.9379 32.1971 29.007 32.5208 29.1412C32.8446 29.2754 33.1387 29.4721 33.3863 29.72L33.4663 29.8C33.7806 30.1074 34.1797 30.3136 34.6122 30.392C35.0447 30.4705 35.4909 30.4175 35.893 30.24H35.9997C36.394 30.071 36.7304 29.7904 36.9673 29.4327C37.2042 29.0749 37.3313 28.6558 37.333 28.2267V28C37.333 27.2928 37.614 26.6145 38.1141 26.1144C38.6142 25.6143 39.2924 25.3334 39.9997 25.3334C40.7069 25.3334 41.3852 25.6143 41.8853 26.1144C42.3854 26.6145 42.6663 27.2928 42.6663 28V28.12C42.6681 28.5491 42.7952 28.9683 43.0321 29.326C43.269 29.6837 43.6053 29.9644 43.9997 30.1334C44.4018 30.3109 44.8479 30.3638 45.2805 30.2854C45.713 30.207 46.1121 30.0008 46.4263 29.6934L46.5063 29.6134C46.754 29.3654 47.0481 29.1687 47.3718 29.0345C47.6956 28.9003 48.0426 28.8313 48.393 28.8313C48.7434 28.8313 49.0905 28.9003 49.4142 29.0345C49.7379 29.1687 50.032 29.3654 50.2797 29.6134C50.5276 29.861 50.7243 30.1551 50.8585 30.4789C50.9927 30.8026 51.0618 31.1496 51.0618 31.5C51.0618 31.8505 50.9927 32.1975 50.8585 32.5212C50.7243 32.8449 50.5276 33.139 50.2797 33.3867L50.1997 33.4667C49.8923 33.7809 49.6861 34.1801 49.6077 34.6126C49.5292 35.0451 49.5822 35.4912 49.7597 35.8934V36C49.9287 36.3944 50.2093 36.7307 50.5671 36.9676C50.9248 37.2045 51.344 37.3317 51.773 37.3334H51.9997C52.7069 37.3334 53.3852 37.6143 53.8853 38.1144C54.3854 38.6145 54.6663 39.2928 54.6663 40C54.6663 40.7073 54.3854 41.3856 53.8853 41.8857C53.3852 42.3858 52.7069 42.6667 51.9997 42.6667H51.8797C51.4506 42.6684 51.0314 42.7955 50.6737 43.0324C50.316 43.2694 50.0354 43.6057 49.8663 44V44Z" stroke="#4DDFFD" stroke-width="2" stroke-linecap="round" stroke-linejoin="round"/>
<defs>
<linearGradient id="paint0_linear" x1="40" y1="0" x2="40" y2="80" gradientUnits="userSpaceOnUse">
<stop stop-color="#4DDFFD"/>
<stop offset="1" stop-color="#FF6B4D"/>
</linearGradient>
</defs>
</svg>
